# xmcd
#
# Track frame offsets: 
#        150
#        20887
#        36976
#        55876
#        78150
#        95249
#        111794
#        139161
#        151467
#        174285
#
# Disc length: 2637 seconds
#
# Revision: 0
# Processed by: cddbd v1.5.2PL0 Copyright (c) Steve Scherf et al.
# Submitted via: ExactAudioCopy v1.0b1
#
DISCID=830a4b0a
DTITLE=Monkeyjunk - To Behold
DYEAR=2011
DGENRE=Blues
TTITLE0=Mother's Crying
TTITLE1=You're Gonna Change (or I'm Gonna Leave)
TTITLE2=Right Now
TTITLE3=Let Her Down
TTITLE4=With These Hands
TTITLE5=You Don't Know
TTITLE6=While You Are Mine
TTITLE7=Running In The Rain
TTITLE8=All About You
TTITLE9=The Marrinator
EXTD=
EXTT0=
EXTT1=
EXTT2=
EXTT3=
EXTT4=
EXTT5=
EXTT6=
EXTT7=
EXTT8=
EXTT9=
PLAYORDER=
